<svg xmlns="http://www.w3.org/2000/svg" xmlns:xlink="http://www.w3.org/1999/xlink" width="127" zoomAndPan="magnify" viewBox="0 0 95.25 30.000001" height="40" preserveAspectRatio="xMidYMid meet" version="1.0"><defs><g/></defs><g fill="#000000" fill-opacity="1"><g transform="translate(2.277572, 18.816033)"><g><path d="M -0.109375 0 L -0.109375 -0.1875 L 0.078125 -0.234375 C 0.265625 -0.273438 0.4375 -0.363281 0.59375 -0.5 C 0.757812 -0.632812 0.914062 -0.804688 1.0625 -1.015625 C 1.21875 -1.234375 1.398438 -1.539062 1.609375 -1.9375 L 4.53125 -7.4375 L 4.671875 -7.4375 L 8.453125 -0.953125 C 8.578125 -0.734375 8.722656 -0.566406 8.890625 -0.453125 C 9.066406 -0.335938 9.265625 -0.257812 9.484375 -0.21875 L 9.640625 -0.1875 L 9.640625 0 L 4.8125 0 L 4.8125 -0.1875 L 5.1875 -0.265625 C 5.375 -0.296875 5.523438 -0.335938 5.640625 -0.390625 C 5.765625 -0.453125 5.847656 -0.519531 5.890625 -0.59375 C 5.929688 -0.664062 5.953125 -0.734375 5.953125 -0.796875 C 5.953125 -0.929688 5.894531 -1.101562 5.78125 -1.3125 L 5.3125 -2.109375 L 2 -2.109375 L 1.984375 -2.078125 C 1.921875 -1.972656 1.867188 -1.84375 1.828125 -1.6875 C 1.785156 -1.53125 1.765625 -1.394531 1.765625 -1.28125 C 1.765625 -1.03125 1.847656 -0.8125 2.015625 -0.625 C 2.179688 -0.445312 2.414062 -0.328125 2.71875 -0.265625 L 3.015625 -0.1875 L 3.015625 0 Z M 5.890625 -0.25 L 7.875 -0.25 C 7.84375 -0.269531 7.789062 -0.316406 7.71875 -0.390625 C 7.65625 -0.472656 7.582031 -0.578125 7.5 -0.703125 C 7.414062 -0.835938 7.300781 -1.023438 7.15625 -1.265625 L 4.21875 -6.328125 L 3.703125 -5.34375 L 6.015625 -1.4375 C 6.148438 -1.1875 6.21875 -0.972656 6.21875 -0.796875 C 6.21875 -0.691406 6.1875 -0.59375 6.125 -0.5 C 6.070312 -0.40625 5.992188 -0.328125 5.890625 -0.265625 Z M 2.140625 -2.359375 L 5.15625 -2.359375 L 3.5625 -5.09375 Z M 0.65625 -0.25 L 1.59375 -0.25 C 1.4375 -0.457031 1.414062 -0.8125 1.53125 -1.3125 C 1.25 -0.820312 0.957031 -0.472656 0.65625 -0.265625 Z M 0.65625 -0.25 "/></g></g></g><g fill="#000000" fill-opacity="1"><g transform="translate(11.817809, 18.816033)"><g><path d="M 0.359375 0 L 0.359375 -0.1875 L 0.8125 -0.296875 C 1.050781 -0.347656 1.253906 -0.410156 1.421875 -0.484375 C 1.585938 -0.554688 1.71875 -0.664062 1.8125 -0.8125 C 1.90625 -0.957031 1.953125 -1.207031 1.953125 -1.5625 L 1.953125 -5.65625 C 1.953125 -5.957031 1.914062 -6.179688 1.84375 -6.328125 C 1.769531 -6.472656 1.65625 -6.585938 1.5 -6.671875 C 1.34375 -6.765625 1.113281 -6.847656 0.8125 -6.921875 L 0.359375 -7.03125 L 0.359375 -7.21875 L 6.015625 -7.21875 C 7.210938 -7.21875 8.097656 -7.066406 8.671875 -6.765625 C 8.972656 -6.597656 9.207031 -6.390625 9.375 -6.140625 C 9.539062 -5.890625 9.625 -5.609375 9.625 -5.296875 C 9.625 -5.078125 9.582031 -4.867188 9.5 -4.671875 C 9.425781 -4.472656 9.3125 -4.300781 9.15625 -4.15625 C 9 -4.019531 8.820312 -3.90625 8.625 -3.8125 C 8.300781 -3.644531 7.90625 -3.515625 7.4375 -3.421875 C 6.976562 -3.335938 6.503906 -3.296875 6.015625 -3.296875 L 5.84375 -3.296875 C 6.351562 -2.972656 6.890625 -2.8125 7.453125 -2.8125 C 7.546875 -2.8125 7.664062 -2.816406 7.8125 -2.828125 C 7.96875 -2.847656 8.113281 -2.875 8.25 -2.90625 L 9.203125 -1.25 C 9.316406 -1.039062 9.425781 -0.867188 9.53125 -0.734375 C 9.632812 -0.597656 9.75 -0.488281 9.875 -0.40625 C 10.007812 -0.332031 10.171875 -0.273438 10.359375 -0.234375 L 10.53125 -0.1875 L 10.53125 0 L 7.421875 0 L 5.53125 -3.296875 L 4.140625 -3.296875 L 4.140625 -1.5625 C 4.140625 -1.257812 4.175781 -1.03125 4.25 -0.875 C 4.320312 -0.726562 4.4375 -0.609375 4.59375 -0.515625 C 4.75 -0.429688 4.976562 -0.359375 5.28125 -0.296875 L 5.71875 -0.1875 L 5.71875 0 Z M 6.640625 -3.546875 C 7.046875 -3.597656 7.34375 -3.65625 7.53125 -3.71875 C 7.71875 -3.789062 7.875 -3.863281 8 -3.9375 C 8.195312 -4.0625 8.351562 -4.234375 8.46875 -4.453125 C 8.582031 -4.679688 8.640625 -4.953125 8.640625 -5.265625 C 8.640625 -5.828125 8.472656 -6.25 8.140625 -6.53125 C 7.847656 -6.789062 7.363281 -6.941406 6.6875 -6.984375 L 6.671875 -6.96875 C 7.316406 -6.65625 7.640625 -6.097656 7.640625 -5.296875 C 7.640625 -5.046875 7.601562 -4.804688 7.53125 -4.578125 C 7.46875 -4.347656 7.351562 -4.144531 7.1875 -3.96875 C 7.03125 -3.800781 6.847656 -3.664062 6.640625 -3.5625 Z M 1.5 -0.25 L 2.546875 -0.25 C 2.679688 -0.25 2.796875 -0.289062 2.890625 -0.375 C 2.992188 -0.457031 3.0625 -0.59375 3.09375 -0.78125 C 3.132812 -0.96875 3.15625 -1.1875 3.15625 -1.4375 L 3.15625 -5.765625 C 3.15625 -6.015625 3.140625 -6.222656 3.109375 -6.390625 C 3.078125 -6.566406 3.015625 -6.707031 2.921875 -6.8125 C 2.835938 -6.914062 2.710938 -6.96875 2.546875 -6.96875 L 1.40625 -6.96875 L 1.40625 -6.953125 C 1.707031 -6.835938 1.914062 -6.679688 2.03125 -6.484375 C 2.15625 -6.285156 2.21875 -6.007812 2.21875 -5.65625 L 2.21875 -1.5625 C 2.21875 -1.332031 2.203125 -1.140625 2.171875 -0.984375 C 2.140625 -0.828125 2.070312 -0.6875 1.96875 -0.5625 C 1.875 -0.445312 1.71875 -0.347656 1.5 -0.265625 Z M 4.140625 -3.546875 L 5.5 -3.546875 C 5.789062 -3.546875 6.050781 -3.582031 6.28125 -3.65625 C 6.519531 -3.726562 6.71875 -3.835938 6.875 -3.984375 C 7.039062 -4.128906 7.164062 -4.3125 7.25 -4.53125 C 7.332031 -4.75 7.375 -5.003906 7.375 -5.296875 C 7.375 -5.585938 7.332031 -5.835938 7.25 -6.046875 C 7.164062 -6.265625 7.039062 -6.4375 6.875 -6.5625 C 6.71875 -6.695312 6.523438 -6.796875 6.296875 -6.859375 C 6.066406 -6.929688 5.800781 -6.96875 5.5 -6.96875 L 4.140625 -6.96875 Z M 7.5625 -0.25 L 8.671875 -0.25 L 8.671875 -0.265625 C 8.628906 -0.296875 8.566406 -0.359375 8.484375 -0.453125 C 8.398438 -0.546875 8.273438 -0.75 8.109375 -1.0625 L 7.25 -2.5625 C 7.050781 -2.570312 6.851562 -2.601562 6.65625 -2.65625 C 6.457031 -2.71875 6.257812 -2.800781 6.0625 -2.90625 L 6.046875 -2.890625 Z M 7.5625 -0.25 "/></g></g></g><g fill="#000000" fill-opacity="1"><g transform="translate(22.40527, 18.816033)"><g><path d="M 0.359375 0 L 0.359375 -0.1875 L 0.8125 -0.296875 C 1.050781 -0.347656 1.253906 -0.410156 1.421875 -0.484375 C 1.585938 -0.554688 1.71875 -0.664062 1.8125 -0.8125 C 1.90625 -0.957031 1.953125 -1.207031 1.953125 -1.5625 L 1.953125 -5.65625 C 1.953125 -5.957031 1.914062 -6.179688 1.84375 -6.328125 C 1.769531 -6.472656 1.65625 -6.585938 1.5 -6.671875 C 1.34375 -6.765625 1.113281 -6.847656 0.8125 -6.921875 L 0.359375 -7.03125 L 0.359375 -7.21875 L 6.015625 -7.21875 C 7.210938 -7.21875 8.097656 -7.066406 8.671875 -6.765625 C 8.972656 -6.597656 9.207031 -6.390625 9.375 -6.140625 C 9.539062 -5.890625 9.625 -5.609375 9.625 -5.296875 C 9.625 -5.078125 9.582031 -4.867188 9.5 -4.671875 C 9.425781 -4.472656 9.3125 -4.300781 9.15625 -4.15625 C 9 -4.019531 8.820312 -3.90625 8.625 -3.8125 C 8.300781 -3.644531 7.90625 -3.515625 7.4375 -3.421875 C 6.976562 -3.335938 6.503906 -3.296875 6.015625 -3.296875 L 5.84375 -3.296875 C 6.351562 -2.972656 6.890625 -2.8125 7.453125 -2.8125 C 7.546875 -2.8125 7.664062 -2.816406 7.8125 -2.828125 C 7.96875 -2.847656 8.113281 -2.875 8.25 -2.90625 L 9.203125 -1.25 C 9.316406 -1.039062 9.425781 -0.867188 9.53125 -0.734375 C 9.632812 -0.597656 9.75 -0.488281 9.875 -0.40625 C 10.007812 -0.332031 10.171875 -0.273438 10.359375 -0.234375 L 10.53125 -0.1875 L 10.53125 0 L 7.421875 0 L 5.53125 -3.296875 L 4.140625 -3.296875 L 4.140625 -1.5625 C 4.140625 -1.257812 4.175781 -1.03125 4.25 -0.875 C 4.320312 -0.726562 4.4375 -0.609375 4.59375 -0.515625 C 4.75 -0.429688 4.976562 -0.359375 5.28125 -0.296875 L 5.71875 -0.1875 L 5.71875 0 Z M 6.640625 -3.546875 C 7.046875 -3.597656 7.34375 -3.65625 7.53125 -3.71875 C 7.71875 -3.789062 7.875 -3.863281 8 -3.9375 C 8.195312 -4.0625 8.351562 -4.234375 8.46875 -4.453125 C 8.582031 -4.679688 8.640625 -4.953125 8.640625 -5.265625 C 8.640625 -5.828125 8.472656 -6.25 8.140625 -6.53125 C 7.847656 -6.789062 7.363281 -6.941406 6.6875 -6.984375 L 6.671875 -6.96875 C 7.316406 -6.65625 7.640625 -6.097656 7.640625 -5.296875 C 7.640625 -5.046875 7.601562 -4.804688 7.53125 -4.578125 C 7.46875 -4.347656 7.351562 -4.144531 7.1875 -3.96875 C 7.03125 -3.800781 6.847656 -3.664062 6.640625 -3.5625 Z M 1.5 -0.25 L 2.546875 -0.25 C 2.679688 -0.25 2.796875 -0.289062 2.890625 -0.375 C 2.992188 -0.457031 3.0625 -0.59375 3.09375 -0.78125 C 3.132812 -0.96875 3.15625 -1.1875 3.15625 -1.4375 L 3.15625 -5.765625 C 3.15625 -6.015625 3.140625 -6.222656 3.109375 -6.390625 C 3.078125 -6.566406 3.015625 -6.707031 2.921875 -6.8125 C 2.835938 -6.914062 2.710938 -6.96875 2.546875 -6.96875 L 1.40625 -6.96875 L 1.40625 -6.953125 C 1.707031 -6.835938 1.914062 -6.679688 2.03125 -6.484375 C 2.15625 -6.285156 2.21875 -6.007812 2.21875 -5.65625 L 2.21875 -1.5625 C 2.21875 -1.332031 2.203125 -1.140625 2.171875 -0.984375 C 2.140625 -0.828125 2.070312 -0.6875 1.96875 -0.5625 C 1.875 -0.445312 1.71875 -0.347656 1.5 -0.265625 Z M 4.140625 -3.546875 L 5.5 -3.546875 C 5.789062 -3.546875 6.050781 -3.582031 6.28125 -3.65625 C 6.519531 -3.726562 6.71875 -3.835938 6.875 -3.984375 C 7.039062 -4.128906 7.164062 -4.3125 7.25 -4.53125 C 7.332031 -4.75 7.375 -5.003906 7.375 -5.296875 C 7.375 -5.585938 7.332031 -5.835938 7.25 -6.046875 C 7.164062 -6.265625 7.039062 -6.4375 6.875 -6.5625 C 6.71875 -6.695312 6.523438 -6.796875 6.296875 -6.859375 C 6.066406 -6.929688 5.800781 -6.96875 5.5 -6.96875 L 4.140625 -6.96875 Z M 7.5625 -0.25 L 8.671875 -0.25 L 8.671875 -0.265625 C 8.628906 -0.296875 8.566406 -0.359375 8.484375 -0.453125 C 8.398438 -0.546875 8.273438 -0.75 8.109375 -1.0625 L 7.25 -2.5625 C 7.050781 -2.570312 6.851562 -2.601562 6.65625 -2.65625 C 6.457031 -2.71875 6.257812 -2.800781 6.0625 -2.90625 L 6.046875 -2.890625 Z M 7.5625 -0.25 "/></g></g></g><g fill="#000000" fill-opacity="1"><g transform="translate(32.992732, 18.816033)"><g><path d="M 5.34375 0.171875 C 4.945312 0.171875 4.570312 0.140625 4.21875 0.078125 C 3.875 0.0234375 3.5625 -0.0390625 3.28125 -0.125 C 3 -0.21875 2.734375 -0.332031 2.484375 -0.46875 C 2.234375 -0.601562 1.988281 -0.765625 1.75 -0.953125 C 1.507812 -1.148438 1.296875 -1.382812 1.109375 -1.65625 C 0.921875 -1.925781 0.773438 -2.222656 0.671875 -2.546875 C 0.566406 -2.878906 0.515625 -3.234375 0.515625 -3.609375 C 0.515625 -4.203125 0.640625 -4.734375 0.890625 -5.203125 C 1.148438 -5.679688 1.5 -6.078125 1.9375 -6.390625 C 2.382812 -6.710938 2.898438 -6.957031 3.484375 -7.125 C 4.066406 -7.289062 4.6875 -7.375 5.34375 -7.375 C 6.007812 -7.375 6.632812 -7.289062 7.21875 -7.125 C 7.800781 -6.957031 8.3125 -6.710938 8.75 -6.390625 C 9.195312 -6.078125 9.546875 -5.679688 9.796875 -5.203125 C 10.046875 -4.734375 10.171875 -4.203125 10.171875 -3.609375 C 10.171875 -3.390625 10.148438 -3.171875 10.109375 -2.953125 C 10.078125 -2.742188 10.023438 -2.539062 9.953125 -2.34375 C 9.878906 -2.15625 9.773438 -1.945312 9.640625 -1.71875 C 9.503906 -1.5 9.296875 -1.265625 9.015625 -1.015625 C 8.742188 -0.773438 8.414062 -0.5625 8.03125 -0.375 C 7.644531 -0.195312 7.222656 -0.0625 6.765625 0.03125 C 6.304688 0.125 5.832031 0.171875 5.34375 0.171875 Z M 5.34375 -0.078125 C 5.707031 -0.078125 6.039062 -0.144531 6.34375 -0.28125 C 6.644531 -0.425781 6.894531 -0.625 7.09375 -0.875 C 7.289062 -1.125 7.441406 -1.398438 7.546875 -1.703125 C 7.660156 -2.015625 7.738281 -2.335938 7.78125 -2.671875 C 7.820312 -3.015625 7.84375 -3.328125 7.84375 -3.609375 C 7.84375 -3.898438 7.820312 -4.210938 7.78125 -4.546875 C 7.738281 -4.878906 7.660156 -5.195312 7.546875 -5.5 C 7.441406 -5.800781 7.289062 -6.078125 7.09375 -6.328125 C 6.894531 -6.578125 6.644531 -6.769531 6.34375 -6.90625 C 6.039062 -7.050781 5.707031 -7.125 5.34375 -7.125 C 4.988281 -7.125 4.65625 -7.050781 4.34375 -6.90625 C 4.039062 -6.769531 3.789062 -6.578125 3.59375 -6.328125 C 3.40625 -6.078125 3.253906 -5.800781 3.140625 -5.5 C 3.023438 -5.195312 2.945312 -4.878906 2.90625 -4.546875 C 2.863281 -4.210938 2.84375 -3.898438 2.84375 -3.609375 C 2.84375 -3.328125 2.863281 -3.015625 2.90625 -2.671875 C 2.945312 -2.335938 3.023438 -2.015625 3.140625 -1.703125 C 3.253906 -1.398438 3.40625 -1.125 3.59375 -0.875 C 3.789062 -0.625 4.039062 -0.425781 4.34375 -0.28125 C 4.65625 -0.144531 4.988281 -0.078125 5.34375 -0.078125 Z M 6.609375 -0.125 C 7.035156 -0.226562 7.410156 -0.378906 7.734375 -0.578125 C 8.054688 -0.773438 8.320312 -1.015625 8.53125 -1.296875 C 8.738281 -1.585938 8.894531 -1.925781 9 -2.3125 C 9.101562 -2.695312 9.15625 -3.132812 9.15625 -3.625 C 9.15625 -4.1875 9.0625 -4.703125 8.875 -5.171875 C 8.695312 -5.648438 8.414062 -6.050781 8.03125 -6.375 C 7.644531 -6.695312 7.179688 -6.925781 6.640625 -7.0625 L 6.625 -7.046875 C 7.125 -6.734375 7.5 -6.285156 7.75 -5.703125 C 8 -5.117188 8.125 -4.421875 8.125 -3.609375 C 8.125 -2.785156 7.992188 -2.082031 7.734375 -1.5 C 7.484375 -0.914062 7.109375 -0.460938 6.609375 -0.140625 Z M 3.453125 -0.3125 L 3.46875 -0.328125 C 2.925781 -0.628906 2.507812 -1.0625 2.21875 -1.625 C 1.9375 -2.1875 1.796875 -2.84375 1.796875 -3.59375 C 1.796875 -4.351562 1.9375 -5.007812 2.21875 -5.5625 C 2.5 -6.113281 2.898438 -6.546875 3.421875 -6.859375 L 3.40625 -6.875 C 3 -6.726562 2.628906 -6.546875 2.296875 -6.328125 C 1.972656 -6.117188 1.695312 -5.875 1.46875 -5.59375 C 1.25 -5.320312 1.082031 -5.015625 0.96875 -4.671875 C 0.851562 -4.335938 0.796875 -3.984375 0.796875 -3.609375 C 0.796875 -2.835938 1.023438 -2.164062 1.484375 -1.59375 C 1.941406 -1.03125 2.597656 -0.601562 3.453125 -0.3125 Z M 3.453125 -0.3125 "/></g></g></g><g fill="#000000" fill-opacity="1"><g transform="translate(43.695389, 18.816033)"><g><path d="M 5.15625 0.171875 C 4.550781 0.171875 3.96875 0.0976562 3.40625 -0.046875 C 2.851562 -0.191406 2.359375 -0.421875 1.921875 -0.734375 C 1.492188 -1.046875 1.148438 -1.445312 0.890625 -1.9375 C 0.640625 -2.425781 0.515625 -2.984375 0.515625 -3.609375 C 0.515625 -3.953125 0.5625 -4.296875 0.65625 -4.640625 C 0.757812 -4.992188 0.921875 -5.335938 1.140625 -5.671875 C 1.367188 -6.003906 1.671875 -6.300781 2.046875 -6.5625 C 2.429688 -6.832031 2.867188 -7.035156 3.359375 -7.171875 C 3.859375 -7.304688 4.390625 -7.375 4.953125 -7.375 C 5.210938 -7.375 5.476562 -7.351562 5.75 -7.3125 C 6.03125 -7.269531 6.28125 -7.210938 6.5 -7.140625 C 6.726562 -7.066406 6.941406 -6.984375 7.140625 -6.890625 C 7.347656 -6.796875 7.46875 -6.75 7.5 -6.75 C 7.570312 -6.75 7.679688 -6.796875 7.828125 -6.890625 C 7.972656 -6.984375 8.191406 -7.144531 8.484375 -7.375 L 8.640625 -7.375 L 8.640625 -4.515625 L 8.453125 -4.515625 C 8.304688 -4.929688 8.109375 -5.316406 7.859375 -5.671875 C 7.617188 -6.023438 7.351562 -6.304688 7.0625 -6.515625 C 6.800781 -6.710938 6.503906 -6.863281 6.171875 -6.96875 C 5.835938 -7.070312 5.503906 -7.125 5.171875 -7.125 C 4.398438 -7.125 3.816406 -6.820312 3.421875 -6.21875 C 3.035156 -5.613281 2.84375 -4.742188 2.84375 -3.609375 C 2.84375 -2.898438 2.9375 -2.273438 3.125 -1.734375 C 3.3125 -1.203125 3.597656 -0.789062 3.984375 -0.5 C 4.367188 -0.21875 4.832031 -0.078125 5.375 -0.078125 C 5.59375 -0.078125 5.828125 -0.0976562 6.078125 -0.140625 C 6.328125 -0.179688 6.535156 -0.242188 6.703125 -0.328125 C 6.835938 -0.390625 6.921875 -0.472656 6.953125 -0.578125 C 6.992188 -0.691406 7.015625 -0.8125 7.015625 -0.9375 L 7.015625 -1.875 C 7.015625 -2.257812 6.960938 -2.539062 6.859375 -2.71875 C 6.753906 -2.90625 6.566406 -3.03125 6.296875 -3.09375 L 5.75 -3.25 L 5.75 -3.4375 L 10.171875 -3.4375 L 10.171875 -3.25 L 9.71875 -3.09375 C 9.488281 -3.007812 9.328125 -2.878906 9.234375 -2.703125 C 9.148438 -2.535156 9.109375 -2.265625 9.109375 -1.890625 L 9.109375 0 L 8.96875 0 C 8.832031 -0.175781 8.703125 -0.320312 8.578125 -0.4375 C 8.453125 -0.5625 8.300781 -0.6875 8.125 -0.8125 C 7.695312 -0.46875 7.242188 -0.21875 6.765625 -0.0625 C 6.296875 0.09375 5.757812 0.171875 5.15625 0.171875 Z M 8.40625 -5.859375 L 8.40625 -7.046875 L 8.390625 -7.046875 C 8.097656 -6.765625 7.863281 -6.597656 7.6875 -6.546875 C 7.988281 -6.328125 8.226562 -6.097656 8.40625 -5.859375 Z M 3.640625 -0.203125 L 3.65625 -0.21875 C 3.34375 -0.375 3.066406 -0.570312 2.828125 -0.8125 C 2.597656 -1.0625 2.40625 -1.335938 2.25 -1.640625 C 2.09375 -1.941406 1.972656 -2.257812 1.890625 -2.59375 C 1.816406 -2.925781 1.78125 -3.265625 1.78125 -3.609375 C 1.78125 -3.859375 1.800781 -4.109375 1.84375 -4.359375 C 1.882812 -4.617188 1.945312 -4.863281 2.03125 -5.09375 C 2.113281 -5.332031 2.21875 -5.554688 2.34375 -5.765625 C 2.46875 -5.972656 2.613281 -6.164062 2.78125 -6.34375 C 2.957031 -6.519531 3.117188 -6.65625 3.265625 -6.75 C 3.421875 -6.851562 3.523438 -6.921875 3.578125 -6.953125 L 3.5625 -6.96875 C 3.363281 -6.90625 3.140625 -6.816406 2.890625 -6.703125 C 2.640625 -6.597656 2.394531 -6.457031 2.15625 -6.28125 C 1.914062 -6.101562 1.691406 -5.882812 1.484375 -5.625 C 1.273438 -5.375 1.109375 -5.070312 0.984375 -4.71875 C 0.859375 -4.375 0.796875 -4.003906 0.796875 -3.609375 C 0.796875 -3.046875 0.914062 -2.53125 1.15625 -2.0625 C 1.40625 -1.601562 1.742188 -1.21875 2.171875 -0.90625 C 2.609375 -0.59375 3.097656 -0.359375 3.640625 -0.203125 Z M 7.171875 -0.46875 C 7.503906 -0.65625 7.832031 -0.882812 8.15625 -1.15625 L 8.15625 -2.234375 C 8.15625 -2.390625 8.164062 -2.535156 8.1875 -2.671875 C 8.21875 -2.816406 8.253906 -2.925781 8.296875 -3 C 8.347656 -3.082031 8.398438 -3.140625 8.453125 -3.171875 L 8.453125 -3.1875 L 6.703125 -3.1875 L 6.703125 -3.171875 C 6.859375 -3.097656 6.972656 -3.015625 7.046875 -2.921875 C 7.117188 -2.828125 7.171875 -2.710938 7.203125 -2.578125 C 7.242188 -2.441406 7.265625 -2.207031 7.265625 -1.875 L 7.265625 -0.9375 C 7.265625 -0.75 7.226562 -0.597656 7.15625 -0.484375 Z M 7.171875 -0.46875 "/></g></g></g><g fill="#000000" fill-opacity="1"><g transform="translate(53.874435, 18.816033)"><g><path d="M -0.109375 0 L -0.109375 -0.1875 L 0.078125 -0.234375 C 0.265625 -0.273438 0.4375 -0.363281 0.59375 -0.5 C 0.757812 -0.632812 0.914062 -0.804688 1.0625 -1.015625 C 1.21875 -1.234375 1.398438 -1.539062 1.609375 -1.9375 L 4.53125 -7.4375 L 4.671875 -7.4375 L 8.453125 -0.953125 C 8.578125 -0.734375 8.722656 -0.566406 8.890625 -0.453125 C 9.066406 -0.335938 9.265625 -0.257812 9.484375 -0.21875 L 9.640625 -0.1875 L 9.640625 0 L 4.8125 0 L 4.8125 -0.1875 L 5.1875 -0.265625 C 5.375 -0.296875 5.523438 -0.335938 5.640625 -0.390625 C 5.765625 -0.453125 5.847656 -0.519531 5.890625 -0.59375 C 5.929688 -0.664062 5.953125 -0.734375 5.953125 -0.796875 C 5.953125 -0.929688 5.894531 -1.101562 5.78125 -1.3125 L 5.3125 -2.109375 L 2 -2.109375 L 1.984375 -2.078125 C 1.921875 -1.972656 1.867188 -1.84375 1.828125 -1.6875 C 1.785156 -1.53125 1.765625 -1.394531 1.765625 -1.28125 C 1.765625 -1.03125 1.847656 -0.8125 2.015625 -0.625 C 2.179688 -0.445312 2.414062 -0.328125 2.71875 -0.265625 L 3.015625 -0.1875 L 3.015625 0 Z M 5.890625 -0.25 L 7.875 -0.25 C 7.84375 -0.269531 7.789062 -0.316406 7.71875 -0.390625 C 7.65625 -0.472656 7.582031 -0.578125 7.5 -0.703125 C 7.414062 -0.835938 7.300781 -1.023438 7.15625 -1.265625 L 4.21875 -6.328125 L 3.703125 -5.34375 L 6.015625 -1.4375 C 6.148438 -1.1875 6.21875 -0.972656 6.21875 -0.796875 C 6.21875 -0.691406 6.1875 -0.59375 6.125 -0.5 C 6.070312 -0.40625 5.992188 -0.328125 5.890625 -0.265625 Z M 2.140625 -2.359375 L 5.15625 -2.359375 L 3.5625 -5.09375 Z M 0.65625 -0.25 L 1.59375 -0.25 C 1.4375 -0.457031 1.414062 -0.8125 1.53125 -1.3125 C 1.25 -0.820312 0.957031 -0.472656 0.65625 -0.265625 Z M 0.65625 -0.25 "/></g></g></g><g fill="#000000" fill-opacity="1"><g transform="translate(63.414671, 18.816033)"><g><path d="M 8.328125 0.078125 L 2.359375 -5.59375 L 2.359375 -2.125 C 2.359375 -2.007812 2.363281 -1.875 2.375 -1.71875 C 2.394531 -1.570312 2.429688 -1.429688 2.484375 -1.296875 C 2.546875 -1.160156 2.613281 -1.039062 2.6875 -0.9375 C 2.769531 -0.832031 2.882812 -0.722656 3.03125 -0.609375 C 3.175781 -0.503906 3.378906 -0.421875 3.640625 -0.359375 L 4.296875 -0.1875 L 4.296875 0 L 0.46875 0 L 0.46875 -0.1875 L 0.90625 -0.359375 C 1.1875 -0.460938 1.410156 -0.59375 1.578125 -0.75 C 1.753906 -0.914062 1.878906 -1.109375 1.953125 -1.328125 C 2.035156 -1.546875 2.078125 -1.8125 2.078125 -2.125 L 2.078125 -5.84375 L 1.984375 -5.953125 C 1.960938 -5.972656 1.898438 -6.035156 1.796875 -6.140625 C 1.691406 -6.242188 1.578125 -6.347656 1.453125 -6.453125 C 1.335938 -6.554688 1.207031 -6.648438 1.0625 -6.734375 C 0.925781 -6.828125 0.789062 -6.890625 0.65625 -6.921875 L 0.265625 -7.03125 L 0.265625 -7.21875 L 3.71875 -7.21875 L 8.234375 -2.953125 L 8.234375 -5.09375 C 8.234375 -5.601562 8.117188 -6 7.890625 -6.28125 C 7.671875 -6.5625 7.363281 -6.753906 6.96875 -6.859375 L 6.296875 -7.03125 L 6.296875 -7.21875 L 10.109375 -7.21875 L 10.109375 -7.03125 L 9.671875 -6.859375 C 9.390625 -6.742188 9.160156 -6.601562 8.984375 -6.4375 C 8.816406 -6.28125 8.691406 -6.09375 8.609375 -5.875 C 8.523438 -5.664062 8.484375 -5.40625 8.484375 -5.09375 L 8.484375 0.078125 Z M 8.21875 -0.375 L 8.21875 -1.65625 L 2.640625 -6.953125 L 1.09375 -6.96875 L 1.09375 -6.953125 C 1.195312 -6.898438 1.320312 -6.828125 1.46875 -6.734375 C 1.625 -6.648438 1.851562 -6.457031 2.15625 -6.15625 Z M 8.34375 -5.8125 L 8.359375 -5.8125 L 8.359375 -6.96875 L 7.375 -6.96875 L 7.375 -6.953125 C 7.882812 -6.742188 8.207031 -6.363281 8.34375 -5.8125 Z M 1.234375 -0.25 L 2.234375 -0.25 L 2.234375 -1.40625 L 2.203125 -1.40625 C 2.140625 -1.132812 2.023438 -0.90625 1.859375 -0.71875 C 1.703125 -0.539062 1.492188 -0.390625 1.234375 -0.265625 Z M 1.234375 -0.25 "/></g></g></g><g fill="#000000" fill-opacity="1"><g transform="translate(73.520409, 18.816033)"><g><path d="M 5.1875 0.171875 C 4.707031 0.171875 4.242188 0.125 3.796875 0.03125 C 3.359375 -0.0507812 2.953125 -0.179688 2.578125 -0.359375 C 2.203125 -0.535156 1.859375 -0.769531 1.546875 -1.0625 C 1.234375 -1.351562 0.984375 -1.71875 0.796875 -2.15625 C 0.609375 -2.59375 0.515625 -3.078125 0.515625 -3.609375 C 0.515625 -3.960938 0.554688 -4.28125 0.640625 -4.5625 C 0.734375 -4.851562 0.84375 -5.109375 0.96875 -5.328125 C 1.09375 -5.554688 1.25 -5.773438 1.4375 -5.984375 C 1.632812 -6.203125 1.894531 -6.421875 2.21875 -6.640625 C 2.550781 -6.859375 2.953125 -7.035156 3.421875 -7.171875 C 3.890625 -7.304688 4.382812 -7.375 4.90625 -7.375 C 5.09375 -7.375 5.300781 -7.363281 5.53125 -7.34375 C 5.757812 -7.320312 5.972656 -7.285156 6.171875 -7.234375 C 6.378906 -7.179688 6.554688 -7.128906 6.703125 -7.078125 C 6.847656 -7.023438 7.003906 -6.957031 7.171875 -6.875 C 7.347656 -6.789062 7.457031 -6.75 7.5 -6.75 C 7.582031 -6.75 7.707031 -6.800781 7.875 -6.90625 C 8.050781 -7.019531 8.253906 -7.175781 8.484375 -7.375 L 8.640625 -7.375 L 8.640625 -4.421875 L 8.453125 -4.421875 C 8.328125 -4.816406 8.160156 -5.179688 7.953125 -5.515625 C 7.742188 -5.847656 7.503906 -6.132812 7.234375 -6.375 C 6.960938 -6.613281 6.65625 -6.796875 6.3125 -6.921875 C 5.96875 -7.054688 5.601562 -7.125 5.21875 -7.125 C 5.007812 -7.125 4.785156 -7.09375 4.546875 -7.03125 C 4.304688 -6.96875 4.082031 -6.851562 3.875 -6.6875 C 3.664062 -6.53125 3.492188 -6.328125 3.359375 -6.078125 C 3.222656 -5.835938 3.113281 -5.566406 3.03125 -5.265625 C 2.945312 -4.960938 2.894531 -4.65625 2.875 -4.34375 C 2.851562 -4.03125 2.84375 -3.75 2.84375 -3.5 C 2.84375 -3 2.894531 -2.539062 3 -2.125 C 3.101562 -1.707031 3.265625 -1.351562 3.484375 -1.0625 C 3.710938 -0.769531 3.992188 -0.539062 4.328125 -0.375 C 4.671875 -0.21875 5.0625 -0.140625 5.5 -0.140625 C 6.28125 -0.140625 6.945312 -0.34375 7.5 -0.75 C 8.070312 -1.144531 8.429688 -1.707031 8.578125 -2.4375 L 8.84375 -2.4375 C 8.769531 -2 8.632812 -1.625 8.4375 -1.3125 C 8.238281 -1 7.988281 -0.734375 7.6875 -0.515625 C 7.03125 -0.0546875 6.195312 0.171875 5.1875 0.171875 Z M 8.375 -5.859375 L 8.390625 -5.859375 L 8.390625 -7.03125 L 8.375 -7.03125 C 8.320312 -6.976562 8.226562 -6.894531 8.09375 -6.78125 C 7.957031 -6.675781 7.820312 -6.597656 7.6875 -6.546875 L 7.6875 -6.53125 C 7.9375 -6.363281 8.164062 -6.140625 8.375 -5.859375 Z M 3.640625 -0.203125 L 3.65625 -0.21875 C 3.34375 -0.375 3.066406 -0.570312 2.828125 -0.8125 C 2.597656 -1.0625 2.40625 -1.335938 2.25 -1.640625 C 2.09375 -1.941406 1.972656 -2.257812 1.890625 -2.59375 C 1.816406 -2.925781 1.78125 -3.265625 1.78125 -3.609375 C 1.78125 -3.859375 1.800781 -4.128906 1.84375 -4.421875 C 1.894531 -4.722656 1.976562 -5.003906 2.09375 -5.265625 C 2.207031 -5.523438 2.332031 -5.753906 2.46875 -5.953125 C 2.613281 -6.160156 2.78125 -6.347656 2.96875 -6.515625 C 3.15625 -6.679688 3.351562 -6.828125 3.5625 -6.953125 L 3.5625 -6.96875 C 2.6875 -6.707031 2.003906 -6.28125 1.515625 -5.6875 C 1.035156 -5.101562 0.796875 -4.410156 0.796875 -3.609375 C 0.796875 -3.304688 0.832031 -3 0.90625 -2.6875 C 0.988281 -2.382812 1.132812 -2.070312 1.34375 -1.75 C 1.550781 -1.425781 1.847656 -1.125 2.234375 -0.84375 C 2.628906 -0.5625 3.097656 -0.347656 3.640625 -0.203125 Z M 3.640625 -0.203125 "/></g></g></g><g fill="#000000" fill-opacity="1"><g transform="translate(82.736001, 18.816033)"><g><path d="M 0.359375 0 L 0.359375 -0.1875 L 0.8125 -0.296875 C 1.050781 -0.347656 1.253906 -0.410156 1.421875 -0.484375 C 1.585938 -0.554688 1.71875 -0.664062 1.8125 -0.8125 C 1.90625 -0.957031 1.953125 -1.207031 1.953125 -1.5625 L 1.953125 -5.65625 C 1.953125 -5.957031 1.914062 -6.179688 1.84375 -6.328125 C 1.769531 -6.472656 1.65625 -6.585938 1.5 -6.671875 C 1.34375 -6.765625 1.113281 -6.847656 0.8125 -6.921875 L 0.359375 -7.03125 L 0.359375 -7.21875 L 9 -7.21875 L 9 -4.75 L 8.796875 -4.75 L 8.671875 -5.15625 C 8.617188 -5.34375 8.535156 -5.539062 8.421875 -5.75 C 8.304688 -5.957031 8.144531 -6.15625 7.9375 -6.34375 C 7.726562 -6.539062 7.484375 -6.6875 7.203125 -6.78125 C 6.929688 -6.882812 6.660156 -6.9375 6.390625 -6.9375 L 4.140625 -6.9375 L 4.140625 -3.90625 L 4.671875 -3.90625 C 4.898438 -3.90625 5.101562 -3.921875 5.28125 -3.953125 C 5.46875 -3.992188 5.617188 -4.050781 5.734375 -4.125 C 5.859375 -4.195312 5.972656 -4.289062 6.078125 -4.40625 C 6.179688 -4.519531 6.269531 -4.691406 6.34375 -4.921875 L 6.5625 -5.59375 L 6.734375 -5.59375 L 6.734375 -1.953125 L 6.5625 -1.953125 L 6.34375 -2.625 C 6.21875 -3 6.023438 -3.265625 5.765625 -3.421875 C 5.503906 -3.578125 5.140625 -3.65625 4.671875 -3.65625 L 4.140625 -3.65625 L 4.140625 -0.265625 L 6.171875 -0.265625 C 6.390625 -0.265625 6.601562 -0.289062 6.8125 -0.34375 C 7.019531 -0.394531 7.222656 -0.472656 7.421875 -0.578125 C 7.617188 -0.679688 7.800781 -0.820312 7.96875 -1 C 8.144531 -1.1875 8.285156 -1.375 8.390625 -1.5625 C 8.492188 -1.757812 8.566406 -1.910156 8.609375 -2.015625 L 8.875 -2.6875 L 9.0625 -2.6875 L 9.0625 0 Z M 8.765625 -5.59375 C 8.679688 -6.101562 8.59375 -6.492188 8.5 -6.765625 C 8.132812 -6.878906 7.734375 -6.957031 7.296875 -7 L 7.296875 -6.984375 C 7.554688 -6.890625 7.785156 -6.769531 7.984375 -6.625 C 8.191406 -6.488281 8.359375 -6.328125 8.484375 -6.140625 C 8.609375 -5.953125 8.703125 -5.769531 8.765625 -5.59375 Z M 1.40625 -0.25 L 2.546875 -0.25 C 2.679688 -0.25 2.796875 -0.289062 2.890625 -0.375 C 2.992188 -0.457031 3.0625 -0.59375 3.09375 -0.78125 C 3.132812 -0.96875 3.15625 -1.1875 3.15625 -1.4375 L 3.15625 -5.765625 C 3.15625 -6.015625 3.140625 -6.222656 3.109375 -6.390625 C 3.078125 -6.566406 3.015625 -6.707031 2.921875 -6.8125 C 2.835938 -6.914062 2.710938 -6.96875 2.546875 -6.96875 L 1.40625 -6.96875 L 1.40625 -6.953125 C 1.707031 -6.835938 1.914062 -6.679688 2.03125 -6.484375 C 2.15625 -6.285156 2.21875 -6.007812 2.21875 -5.65625 L 2.21875 -1.5625 C 2.21875 -1.300781 2.1875 -1.082031 2.125 -0.90625 C 2.0625 -0.738281 1.960938 -0.601562 1.828125 -0.5 C 1.703125 -0.394531 1.5625 -0.316406 1.40625 -0.265625 Z M 5.46875 -3.78125 L 6.484375 -3.78125 L 6.484375 -4.6875 L 6.46875 -4.6875 C 6.394531 -4.5 6.304688 -4.34375 6.203125 -4.21875 C 6.109375 -4.101562 5.992188 -4.007812 5.859375 -3.9375 C 5.722656 -3.875 5.59375 -3.828125 5.46875 -3.796875 Z M 7.203125 -0.234375 C 7.804688 -0.296875 8.242188 -0.367188 8.515625 -0.453125 C 8.628906 -0.796875 8.734375 -1.285156 8.828125 -1.921875 C 8.671875 -1.492188 8.460938 -1.140625 8.203125 -0.859375 C 7.941406 -0.585938 7.609375 -0.382812 7.203125 -0.25 Z M 7.203125 -0.234375 "/></g></g></g></svg>